<svg width="345" height="320" viewBox="0 0 345 320" fill="none" xmlns="http://www.w3.org/2000/svg">
<path d="M0 32V287.586C0 302.671 0 310.214 4.68629 314.9C9.37258 319.586 16.9151 319.586 32 319.586H313C328.085 319.586 335.627 319.586 340.314 314.9C345 310.214 345 302.671 345 287.586V65.0862C345 50.0012 345 42.4588 340.314 37.7725C335.627 33.0862 328.085 33.0862 313 33.0862H280.81C271.637 33.0862 267.051 33.0862 263.297 30.8797C259.543 28.6733 257.292 24.6299 252.79 16.5431C248.288 8.45626 246.037 4.41285 242.283 2.20643C238.529 0 233.943 0 224.77 0H32C16.9151 0 9.37258 0 4.68629 4.68629C0 9.37258 0 16.9151 0 32Z" fill="#F6F5F8"/>
</svg>
