<svg width="322" height="320" viewBox="0 0 322 320" fill="none" xmlns="http://www.w3.org/2000/svg">
<path d="M0 32V287.586C0 302.671 0 310.214 4.68629 314.9C9.37258 319.586 16.9151 319.586 32 319.586H290C305.085 319.586 312.627 319.586 317.314 314.9C322 310.214 322 302.671 322 287.586V65.0862C322 50.0012 322 42.4588 317.314 37.7725C312.627 33.0862 305.085 33.0862 290 33.0862H261.723C252.551 33.0862 247.964 33.0862 244.211 30.8797C240.457 28.6733 238.206 24.6299 233.704 16.5431C229.201 8.45626 226.95 4.41285 223.197 2.20643C219.443 0 214.857 0 205.684 0H32C16.9151 0 9.37258 0 4.68629 4.68629C0 9.37258 0 16.9151 0 32Z" fill="#F6F5F8"/>
</svg>
